HIERARCHY
ROOT hip
{
  OFFSET 0 0 0
  CHANNELS 6 Xposition Yposition Zposition Zrotation Yrotation Xrotation
  JOINT abdomen
  {
    OFFSET 0 20.6881 -0.73152
    CHANNELS 3 Zrotation Xrotation Yrotation
    JOINT chest
    {
      OFFSET 0 11.7043 -0.48768
      CHANNELS 3 Zrotation Xrotation Yrotation
      JOINT neck
      {
        OFFSET 0 22.1894 -2.19456
        CHANNELS 3 Zrotation Xrotation Yrotation
        JOINT head
        {
          OFFSET -0.24384 7.07133 1.2192
          CHANNELS 3 Zrotation Xrotation Yrotation
          JOINT leftEye
          {
            OFFSET 4.14528 8.04674 8.04672
            CHANNELS 3 Zrotation Xrotation Yrotation
            End Site
            {
              OFFSET 1 0 0
            }
          }
          JOINT rightEye
          {
            OFFSET -3.6576 8.04674 8.04672
            CHANNELS 3 Zrotation Xrotation Yrotation
            End Site
            {
              OFFSET 1 0 0
            }
          }
        }
      }
      JOINT rCollar
      {
        OFFSET -2.68224 19.2634 -4.8768
        CHANNELS 3 Zrotation Xrotation Yrotation
        JOINT rShldr
        {
          OFFSET -8.77824 -1.95073 1.46304
          CHANNELS 3 Zrotation Xrotation Yrotation
          JOINT rForeArm
          {
            OFFSET -28.1742 -1.7115 0.48768
            CHANNELS 3 Zrotation Xrotation Yrotation
            JOINT rHand
            {
              OFFSET -22.5879 0.773209 7.07136
              CHANNELS 3 Zrotation Xrotation Yrotation
              JOINT rThumb1
              {
                OFFSET -1.2192 -0.487915 3.41376
                CHANNELS 3 Zrotation Xrotation Yrotation
                JOINT rThumb2
                {
                  OFFSET -3.37035 -0.52449 3.41376
                  CHANNELS 3 Zrotation Xrotation Yrotation
                  End Site
                  {
                    OFFSET -1.78271 -1.18214 1.43049
                  }
                }
              }
              JOINT rIndex1
              {
                OFFSET -7.75947 0.938293 5.60832
                CHANNELS 3 Zrotation Xrotation Yrotation
                JOINT rIndex2
                {
                  OFFSET -2.54057 -0.884171 1.56538
                  CHANNELS 3 Zrotation Xrotation Yrotation
                  End Site
                  {
                    OFFSET -1.62519 -0.234802 1.16502
                  }
                }
              }
              JOINT rMid1
              {
                OFFSET -8.24714 1.18213 3.41376
                CHANNELS 3 Zrotation Xrotation Yrotation
                JOINT rMid2
                {
                  OFFSET -3.10165 -0.590103 1.0647
                  CHANNELS 3 Zrotation Xrotation Yrotation
                  End Site
                  {
                    OFFSET -2.48547 -0.328903 0.83742
                  }
                }
              }
              JOINT rRing1
              {
                OFFSET -8.82822 0.546677 1.51678
                CHANNELS 3 Zrotation Xrotation Yrotation
                JOINT rRing2
                {
                  OFFSET -2.60934 -0.819778 -0.0198488
                  CHANNELS 3 Zrotation Xrotation Yrotation
                  End Site
                  {
                    OFFSET -2.33842 -0.294052 0.168128
                  }
                }
              }
              JOINT rPinky1
              {
                OFFSET -8.27202 -0.0477905 -0.4584
                CHANNELS 3 Zrotation Xrotation Yrotation
                JOINT rPinky2
                {
                  OFFSET -1.82734 -0.647385 -0.700984
                  CHANNELS 3 Zrotation Xrotation Yrotation
                  End Site
                  {
                    OFFSET -1.69225 -0.51767 -0.607171
                  }
                }
              }
            }
          }
        }
      }
      JOINT lCollar
      {
        OFFSET 2.68224 19.2634 -4.8768
        CHANNELS 3 Zrotation Xrotation Yrotation
        JOINT lShldr
        {
          OFFSET 8.77824 -1.95073 1.46304
          CHANNELS 3 Zrotation Xrotation Yrotation
          JOINT lForeArm
          {
            OFFSET 28.1742 -1.7115 0.48768
            CHANNELS 3 Zrotation Xrotation Yrotation
            JOINT lHand
            {
              OFFSET 22.5879 0.773209 7.07136
              CHANNELS 3 Zrotation Xrotation Yrotation
              JOINT lThumb1
              {
                OFFSET 1.2192 -0.487915 3.41376
                CHANNELS 3 Zrotation Xrotation Yrotation
                JOINT lThumb2
                {
                  OFFSET 3.37035 -0.52449 3.41376
                  CHANNELS 3 Zrotation Xrotation Yrotation
                  End Site
                  {
                    OFFSET 1.78271 -1.18214 1.43049
                  }
                }
              }
              JOINT lIndex1
              {
                OFFSET 7.75947 0.938293 5.60832
                CHANNELS 3 Zrotation Xrotation Yrotation
                JOINT lIndex2
                {
                  OFFSET 2.54057 -0.884171 1.56538
                  CHANNELS 3 Zrotation Xrotation Yrotation
                  End Site
                  {
                    OFFSET 1.62519 -0.234802 1.16502
                  }
                }
              }
              JOINT lMid1
              {
                OFFSET 8.24714 1.18213 3.41376
                CHANNELS 3 Zrotation Xrotation Yrotation
                JOINT lMid2
                {
                  OFFSET 3.10165 -0.590103 1.0647
                  CHANNELS 3 Zrotation Xrotation Yrotation
                  End Site
                  {
                    OFFSET 2.48547 -0.328903 0.83742
                  }
                }
              }
              JOINT lRing1
              {
                OFFSET 8.82822 0.546677 1.51678
                CHANNELS 3 Zrotation Xrotation Yrotation
                JOINT lRing2
                {
                  OFFSET 2.60934 -0.819778 -0.0198488
                  CHANNELS 3 Zrotation Xrotation Yrotation
                  End Site
                  {
                    OFFSET 2.33842 -0.294052 0.168128
                  }
                }
              }
              JOINT lPinky1
              {
                OFFSET 8.27202 -0.0477905 -0.4584
                CHANNELS 3 Zrotation Xrotation Yrotation
                JOINT lPinky2
                {
                  OFFSET 1.82734 -0.647385 -0.700984
                  CHANNELS 3 Zrotation Xrotation Yrotation
                  End Site
                  {
                    OFFSET 1.69225 -0.51767 -0.607171
                  }
                }
              }
            }
          }
        }
      }
    }
  }
  JOINT rButtock
  {
    OFFSET -8.77824 4.35084 1.2192
    CHANNELS 3 Zrotation Xrotation Yrotation
    JOINT rThigh
    {
      OFFSET 0 -1.70687 -2.19456
      CHANNELS 3 Zrotation Xrotation Yrotation
      JOINT rShin
      {
        OFFSET 0 -36.8199 0.73152
        CHANNELS 3 Zrotation Xrotation Yrotation
        JOINT rFoot
        {
          OFFSET 0.73152 -45.1104 -5.12064
          CHANNELS 3 Zrotation Xrotation Yrotation
          End Site
          {
            OFFSET -1.1221 -3.69964 12.103
          }
        }
      }
    }
  }
  JOINT lButtock
  {
    OFFSET 8.77824 4.35084 1.2192
    CHANNELS 3 Zrotation Xrotation Yrotation
    JOINT lThigh
    {
      OFFSET 0 -1.70687 -2.19456
      CHANNELS 3 Zrotation Xrotation Yrotation
      JOINT lShin
      {
        OFFSET 0 -36.8199 0.73152
        CHANNELS 3 Zrotation Xrotation Yrotation
        JOINT lFoot
        {
          OFFSET -0.73152 -45.1104 -5.12064
          CHANNELS 3 Zrotation Xrotation Yrotation
          End Site
          {
            OFFSET 1.1221 -3.69964 12.103
          }
        }
      }
    }
  }
}
MOTION
Frames:	6
Frame Time:	0.00833333
89.1665 83.4221 -41.0286 0.0 0.0 0.0 -2.71685 0.00115924 -0.0732875 -0.748382 0.0144132 -0.129496 -3.12741e-14 7.95139e-16 -1.98785e-16 -9.42829e-14 9.54166e-15 -6.01013e-16 -0.0 0.0 0.0 -0.0 0.0 0.0 -1.5955e-14 -1.10457e-16 4.96962e-17 -3.2888e-13 -2.1183e-15 -2.18663e-15 -5.66631e-12 1.62407e-12 0.0 -6.49225e-11 -2.10702e-12 -4.96167e-13 -1.53135e-10 -1.05156e-12 -1.04958e-12 -2.64466e-10 -1.82246e-12 -1.82405e-12 -1.53129e-10 -1.05356e-12 -1.06231e-12 7.73091 5.47488 0.417314 -1.53136e-10 -1.05207e-12 -1.05276e-12 2.90554 0.965183 0.102902 -1.53132e-10 -1.05137e-12 -1.05753e-12 10.2786 0.731801 0.0259123 -1.53146e-10 -1.0476e-12 -1.0464e-12 2.22167 -0.733487 -0.20892 -1.61498e-14 -1.13758e-16 -2.48481e-16 -3.30088e-13 -2.03754e-15 -3.97569e-15 -5.6755e-12 -1.77594e-12 4.13472e-14 -6.49246e-11 1.27933e-12 -5.21611e-13 -1.53153e-10 -1.08571e-12 -1.05276e-12 -2.64478e-10 -1.87971e-12 -1.82007e-12 -1.53155e-10 -1.08576e-12 -1.0464e-12 -7.73091 5.47488 -0.417314 -1.53152e-10 -1.08556e-12 -1.05276e-12 -2.90554 0.965183 -0.102902 -1.53157e-10 -1.08616e-12 -1.05515e-12 -10.2786 0.731801 -0.0259123 -1.53146e-10 -1.08099e-12 -1.06549e-12 -2.22167 -0.733487 0.20892 -2.03217e-16 0.0 -3.88251e-19 -1.56626 -1.93222 0.00883136 -0.00885887 -2.07861 -0.0729285 -0.496883 3.9993 0.138094 2.03217e-16 0.0 3.88251e-19 -2.5593 -8.62931 0.27573 -0.00720721 10.0515 -0.18689 0.546596 -1.43362 -0.0320067
85.3089 82.4829 -42.8983 -9.2141 -31.4609 5.4491 -0.729623 -1.63107 -0.552124 -1.92505 2.18125 -0.223645 -2.80768 2.88519 -2.41079 7.31461 -7.91937 -2.83317 -0.0 0.0 0.0 -0.0 0.0 0.0 4.55125e-15 6.448e-14 9.59272e-14 24.9936 23.3513 -8.62956 -12.8414 -9.85066 13.8074 0.0378922 4.32032 0.600964 6.51704e-10 -6.69086e-10 1.19121e-10 1.12684e-09 -1.14444e-09 1.95273e-10 6.51708e-10 -6.69087e-10 1.19108e-10 7.73091 5.47488 0.417314 6.51702e-10 -6.69086e-10 1.19118e-10 2.90554 0.965183 0.102902 6.51708e-10 -6.69085e-10 1.19117e-10 10.2786 0.731801 0.0259123 6.51695e-10 -6.69083e-10 1.19127e-10 2.22167 -0.733487 -0.20892 4.39746e-15 6.44801e-14 9.56562e-14 -24.08 27.7911 6.49169 11.8025 -8.73278 -13.3366 -0.00110689 -0.738003 0.103688 3.20665e-10 -5.24536e-10 -4.05773e-10 5.55891e-10 -9.07673e-10 -7.03063e-10 3.20663e-10 -5.24538e-10 -4.05769e-10 -7.73091 5.47488 -0.417314 3.20666e-10 -5.24537e-10 -4.05772e-10 -2.90554 0.965183 -0.102902 3.20661e-10 -5.24537e-10 -4.05775e-10 -10.2786 0.731801 -0.0259123 3.20672e-10 -5.24533e-10 -4.05785e-10 -2.22167 -0.733487 0.20892 -2.03217e-16 0.0 -3.88251e-19 0.614075 -3.83239 -0.929904 0.00947372 5.66871 0.087101 -0.706207 -1.81175 -1.6347 2.03217e-16 0.0 3.88251e-19 -0.366969 -9.19141 1.86252 -0.0146202 16.2495 -0.2855 0.768944 -7.05238 1.27468
85.3492 82.477 -42.8326 -8.9992 -31.4099 5.3534 1.33267 -3.35108 -1.05767 -3.16105 4.47804 -0.322776 -5.51122 5.91715 -4.98069 14.1727 -16.2346 -6.01135 -0.0 0.0 0.0 -0.0 0.0 0.0 2.75134e-14 1.36067e-13 2.01645e-13 61.9371 45.9897 -23.8024 -21.24 -18.3295 29.6184 -0.0217019 8.88999 1.2483 1.42205e-09 -1.32982e-09 2.62158e-10 2.45865e-09 -2.27499e-09 4.32305e-10 1.42205e-09 -1.32982e-09 2.62146e-10 7.73091 5.47488 0.417314 1.42205e-09 -1.32982e-09 2.62157e-10 2.90554 0.965183 0.102902 1.42206e-09 -1.32982e-09 2.62158e-10 10.2786 0.731801 0.0259123 1.42205e-09 -1.32982e-09 2.62168e-10 2.22167 -0.733487 -0.20892 2.74027e-14 1.36071e-13 2.01403e-13 -61.0755 55.6335 21.2442 19.8758 -16.3703 -28.3603 0.000628071 -1.51784 0.213313 7.59008e-10 -1.08252e-09 -7.84836e-10 1.31475e-09 -1.87311e-09 -1.36002e-09 7.59005e-10 -1.08252e-09 -7.84834e-10 -7.73091 5.47488 -0.417314 7.59009e-10 -1.08252e-09 -7.84834e-10 -2.90554 0.965183 -0.102902 7.59002e-10 -1.08252e-09 -7.84838e-10 -10.2786 0.731801 -0.0259123 7.59016e-10 -1.08251e-09 -7.84848e-10 -2.22167 -0.733487 0.20892 -2.03217e-16 0.0 -3.88251e-19 2.84445 -5.83912 -1.9273 -0.0192365 13.8621 0.263032 -1.32104 -7.94281 -3.5403 2.03217e-16 0.0 3.88251e-19 1.97657 -9.77349 3.54245 0.00289351 22.7991 -0.400631 1.29113 -12.9807 2.71258
85.353 82.4797 -42.8015 -9.0276 -31.4323 5.3475 3.16274 -4.89404 -1.51465 -4.25686 6.51481 -0.41413 -7.68977 8.59396 -7.30566 19.4237 -23.515 -9.18712 -0.0 0.0 0.0 -0.0 0.0 0.0 4.55637e-14 1.93661e-13 2.87682e-13 113.76 59.7924 -53.1875 -24.7619 -22.5332 45.0256 -0.164208 12.9552 1.84474 2.26138e-09 -2.00516e-09 3.59461e-10 3.90945e-09 -3.42967e-09 5.89467e-10 2.26138e-09 -2.00515e-09 3.59449e-10 7.73091 5.47488 0.417314 2.26138e-09 -2.00515e-09 3.59461e-10 2.90554 0.965183 0.102902 2.26139e-09 -2.00515e-09 3.59465e-10 10.2786 0.731801 0.0259123 2.26138e-09 -2.00515e-09 3.59473e-10 2.22167 -0.733487 -0.20892 4.5492e-14 1.93668e-13 2.87466e-13 -133.07 71.7391 70.876 23.6841 -20.4307 -42.7902 0.00469777 -2.21398 0.311272 1.2683e-09 -1.57144e-09 -1.21521e-09 2.19663e-09 -2.71926e-09 -2.10555e-09 1.2683e-09 -1.57144e-09 -1.21521e-09 -7.73091 5.47488 -0.417314 1.2683e-09 -1.57144e-09 -1.21521e-09 -2.90554 0.965183 -0.102902 1.2683e-09 -1.57144e-09 -1.21522e-09 -10.2786 0.731801 -0.0259123 1.26831e-09 -1.57144e-09 -1.21523e-09 -2.22167 -0.733487 0.20892 -2.03217e-16 0.0 -3.88251e-19 4.78651 -7.62507 -2.82614 -0.0904351 21.1628 0.435133 -2.22397 -13.3803 -5.32201 2.03217e-16 0.0 3.88251e-19 4.11237 -10.2905 5.05203 0.0442529 28.6451 -0.517593 2.01719 -18.2521 4.06387
85.37 82.4769 -42.7965 -9.0651 -31.3774 5.4092 4.46931 -5.99574 -1.84577 -5.01716 7.90168 -0.484109 -9.07504 10.4416 -8.94857 22.4973 -28.4388 -11.7016 -0.0 0.0 0.0 -0.0 0.0 0.0 5.13344e-14 2.16273e-13 3.24516e-13 161.139 60.7998 -83.298 -25.7938 -22.9167 55.9271 -0.314851 15.7648 2.27385 3.27316e-09 -2.717e-09 3.42428e-10 5.65772e-09 -4.64468e-09 5.46954e-10 3.27316e-09 -2.71699e-09 3.42415e-10 7.73091 5.47488 0.417314 3.27316e-09 -2.71699e-09 3.42428e-10 2.90554 0.965183 0.102902 3.27317e-09 -2.71699e-09 3.42434e-10 10.2786 0.731801 0.0259123 3.27316e-09 -2.71699e-09 3.42441e-10 2.22167 -0.733487 -0.20892 5.12915e-14 2.16282e-13 3.24317e-13 162.005 65.8416 118.741 25.0286 -21.1574 -53.0507 0.00895517 -2.7009 0.379871 1.95497e-09 -1.88772e-09 -1.77388e-09 3.38605e-09 -3.26717e-09 -3.07253e-09 1.95497e-09 -1.88772e-09 -1.77388e-09 -7.73091 5.47488 -0.417314 1.95497e-09 -1.88772e-09 -1.77388e-09 -2.90554 0.965183 -0.102902 1.95497e-09 -1.88772e-09 -1.77388e-09 -10.2786 0.731801 -0.0259123 1.95498e-09 -1.88772e-09 -1.77389e-09 -2.22167 -0.733487 0.20892 -2.03217e-16 0.0 -3.88251e-19 6.14091 -8.86601 -3.46226 -0.169099 26.2322 0.569112 -3.06432 -17.1379 -6.64017 2.03217e-16 0.0 3.88251e-19 5.66337 -10.6635 6.1243 0.0903852 32.7325 -0.610259 2.66696 -21.9175 5.03392
85.3423 82.4821 -42.8127 -9.3659 -31.3005 5.576 5.08544 -6.47181 -1.99725 -5.31432 8.37532 -0.52316 -9.58493 11.1731 -9.58833 23.4863 -30.2467 -12.7815 -0.0 0.0 0.0 -0.0 0.0 0.0 3.04925e-14 1.73157e-13 2.77559e-13 178.826 58.8508 -93.8573 -26.0627 -22.4306 60.0214 -0.383752 16.8203 2.43967 4.91679e-09 -3.69741e-09 8.64118e-11 8.49659e-09 -6.31383e-09 8.35262e-11 4.91679e-09 -3.6974e-09 8.63983e-11 7.73091 5.47488 0.417314 4.91679e-09 -3.6974e-09 8.64111e-11 2.90554 0.965183 0.102902 4.9168e-09 -3.6974e-09 8.64166e-11 10.2786 0.731801 0.0259123 4.91679e-09 -3.6974e-09 8.64225e-11 2.22167 -0.733487 -0.20892 3.04626e-14 1.73166e-13 2.77364e-13 145.158 60.6204 128.488 25.3953 -20.9031 -56.9552 0.0109643 -2.89478 0.407208 3.18458e-09 -1.95588e-09 -2.72988e-09 5.51645e-09 -3.38698e-09 -4.72594e-09 3.18458e-09 -1.95588e-09 -2.72988e-09 -7.73091 5.47488 -0.417314 3.18459e-09 -1.95588e-09 -2.72987e-09 -2.90554 0.965183 -0.102902 3.18458e-09 -1.95588e-09 -2.72988e-09 -10.2786 0.731801 -0.0259123 3.18459e-09 -1.95588e-09 -2.72988e-09 -2.22167 -0.733487 0.20892 -2.03217e-16 0.0 -3.88251e-19 6.74908 -9.33946 -3.71788 -0.206928 28.1722 0.625242 -3.44511 -18.5838 -7.18487 2.03217e-16 0.0 3.88251e-19 6.3835 -10.8425 6.57955 0.113636 34.3656 -0.64988 2.92415 -23.3643 5.34942
